<?xml version="1.0" encoding="UTF-8"?>
<!DOCTYPE svg PUBLIC "-//W3C//DTD SVG 1.1//EN" "http://www.w3.org/Graphics/SVG/1.1/DTD/svg11.dtd">
<!-- Creator: CorelDRAW 2019 (64-Bit) -->
<svg xmlns="http://www.w3.org/2000/svg" xml:space="preserve" width="100px" height="56px" version="1.1" style="shape-rendering:geometricPrecision; text-rendering:geometricPrecision; image-rendering:optimizeQuality; fill-rule:evenodd; clip-rule:evenodd"
viewBox="0 0 167.27 94.17"
 xmlns:xlink="http://www.w3.org/1999/xlink"
 xmlns:xodm="http://www.corel.com/coreldraw/odm/2003">
 <defs>
  <style type="text/css">
   <![CDATA[
    .fil0 {fill:#FEFEFE}
   ]]>
  </style>
 </defs>
 <g id="Слой_x0020_1">
  <metadata id="CorelCorpID_0Corel-Layer"/>
  <path class="fil0" d="M0 94.17c0,0 18.29,-16.61 31.81,-24.45 13.53,-7.84 21.06,-13.52 28.85,-15.57 7.8,-2.05 26.85,-9.92 41.23,-20.74 14.37,-10.83 17.85,-14.26 29.72,-20.34 11.86,-6.09 34.3,-10.14 35.35,-10.81 1.04,-0.66 -0.85,-0.89 -0.85,-0.89l-3.98 -0.43c-4.38,-0.32 -8.77,-0.63 -13.15,-0.94 0,0 -5.28,2.81 -9.74,3.51 -4.45,0.7 -10.34,2.47 -15.52,4.05 -5.19,1.58 -10.54,6.08 -16.67,7.82 -5.58,1.58 -13.39,5.98 -17.69,9.4 -1.01,0.8 -1.52,0.83 -3.03,0.68 -1.51,-0.16 -5.06,-0.33 -7.07,0.99 -3.66,2.39 -3.82,8.02 -14.38,9.5 -10.56,1.48 -9.51,0.76 -14.95,2.84 -5.45,2.09 -6.83,5.72 -7.04,7.45 -0.21,1.73 0.74,5.76 -5.43,10.5 -6.17,4.75 -6.86,5.06 -12.12,8.61 -5.26,3.56 -12.55,9.86 -16.37,14.61 -3.81,4.75 -8.97,14.21 -8.97,14.21zm31.59 -35.32c-3,-0.1 -3.62,-5.38 -3.21,-8.71 0.41,-3.32 3.35,-8.32 8.13,-7.73 4.77,0.58 5.31,4 4.99,6.57 -0.32,2.57 -6.52,9.97 -9.91,9.87z"/>
 </g>
</svg>
