<?xml version="1.0" encoding="UTF-8"?>
<!DOCTYPE svg PUBLIC "-//W3C//DTD SVG 1.1//EN" "http://www.w3.org/Graphics/SVG/1.1/DTD/svg11.dtd">
<!-- Creator: CorelDRAW 2019 (64-Bit) -->
<svg xmlns="http://www.w3.org/2000/svg" xml:space="preserve" width="180px" height="180px" version="1.1" style="shape-rendering:geometricPrecision; text-rendering:geometricPrecision; image-rendering:optimizeQuality; fill-rule:evenodd; clip-rule:evenodd"
viewBox="0 0 111.43 111.43"
 xmlns:xlink="http://www.w3.org/1999/xlink"
 xmlns:xodm="http://www.corel.com/coreldraw/odm/2003">
 <defs>
  <style type="text/css">
   <![CDATA[
    .fil2 {fill:#2737FF}
    .fil0 {fill:#3E44AB}
    .fil1 {fill:#FF0700;fill-rule:nonzero}
   ]]>
  </style>
 </defs>
 <g id="Слой_x0020_1">
  <metadata id="CorelCorpID_0Corel-Layer"/>
  <g id="_2025556928720">
   <path class="fil0" d="M17.93 93.5c9.67,9.67 23.03,15.65 37.78,15.65 14.76,0 28.12,-5.98 37.79,-15.65 9.67,-9.67 15.65,-23.03 15.65,-37.79 0,-14.75 -5.98,-28.11 -15.65,-37.78 -9.67,-9.67 -23.03,-15.65 -37.79,-15.65 -14.75,0 -28.11,5.98 -37.78,15.65 -9.67,9.67 -15.65,23.03 -15.65,37.78 0,14.76 5.98,28.12 15.65,37.79zm37.78 17.93c-15.38,0 -29.31,-6.24 -39.39,-16.32 -10.08,-10.08 -16.32,-24.01 -16.32,-39.4 0,-15.38 6.24,-29.31 16.32,-39.39 10.08,-10.08 24.01,-16.32 39.39,-16.32 15.39,0 29.32,6.24 39.4,16.32 10.08,10.08 16.32,24.01 16.32,39.39 0,15.39 -6.24,29.32 -16.32,39.4 -10.08,10.08 -24.01,16.32 -39.4,16.32zm21.19 -32.17c0.09,-0.14 0.18,-0.29 0.25,-0.43 -0.07,0.24 -0.16,0.48 -0.25,0.72l0 -0.18c0,-0.03 0,-0.07 0,-0.11zm28.47 -18.03l-7.8 -0.71 -0.05 0.54c-0.05,0.5 -0.02,0.83 0.09,0.97 0.2,0.28 0.73,0.57 1.6,0.87l0.11 0.04c0.08,0.02 0.17,0.05 0.26,0.09 0.17,0.08 0.25,0.19 0.23,0.34 -0.02,0.25 -0.22,0.36 -0.6,0.32 -0.34,-0.03 -0.72,0.02 -1.13,0.13 -0.18,0.06 -0.39,0.12 -0.62,0.2 -0.21,0.07 -0.35,0.1 -0.44,0.09 -0.32,-0.02 -0.46,-0.23 -0.43,-0.6 0.19,-0.7 0.29,-1.26 0.32,-1.69l0.04 -0.45 0.38 -4.21c0.05,-0.39 0.04,-0.96 -0.01,-1.72 0.01,-0.16 0.07,-0.28 0.17,-0.38 0.1,-0.1 0.22,-0.14 0.36,-0.13 0.05,0.01 0.38,0.16 0.99,0.47 0.4,0.19 0.76,0.31 1.08,0.34 0.18,0.01 0.3,0.03 0.35,0.06 0.15,0.06 0.21,0.18 0.2,0.35 -0.02,0.15 -0.15,0.25 -0.41,0.31 -0.08,0.02 -0.31,0.06 -0.7,0.13 -0.62,0.1 -1.04,0.26 -1.26,0.47 -0.16,0.15 -0.25,0.39 -0.28,0.72l-0.07 0.78 7.8 0.71 0.09 -1.07 0.54 0.05 -0.37 4.07 -0.53 -0.05 0.09 -1.04zm-5.76 4.13l-1.02 3.17 -0.48 -0.16 0.16 -0.52c-1.43,-0.46 -2.29,-0.26 -2.57,0.61 -0.18,0.56 0.01,1.06 0.56,1.5 0.39,0.32 0.91,0.58 1.57,0.79 0.78,0.25 1.84,0.43 3.18,0.53 0.73,0.05 1.32,0.14 1.77,0.29 0.13,0.04 0.29,0.12 0.48,0.25l0.16 0.11c0.06,-0.04 0.11,-0.12 0.16,-0.26 0.17,-0.55 -0.04,-1.14 -0.64,-1.76 -0.52,-0.54 -1.08,-0.91 -1.68,-1.1 -0.15,-0.05 -0.26,-0.08 -0.33,-0.09l-0.16 0.51 -0.51 -0.17 1.02 -3.17 0.51 0.16 -0.16 0.5c0.98,0.32 1.69,1.04 2.13,2.16 0.41,1.05 0.46,2.08 0.13,3.09 -0.11,0.35 -0.25,0.63 -0.44,0.84l-0.16 -0.05c-0.32,-0.1 -0.71,-0.09 -1.18,0.04 -0.13,0.03 -0.51,0.16 -1.14,0.4 -0.67,0.24 -1.25,0.36 -1.75,0.36 -0.33,0 -0.7,-0.07 -1.11,-0.2l-0.32 -0.1c-1.09,-0.35 -1.87,-0.99 -2.36,-1.91 -0.48,-0.91 -0.55,-1.92 -0.2,-3 0.29,-0.9 0.76,-1.57 1.4,-2.01 0.64,-0.44 1.42,-0.6 2.34,-0.47l0.16 -0.5 0.48 0.16zm-7.79 11.72l-0.47 0.85 -0.47 -0.26 1.93 -3.46 0.47 0.26 -0.49 0.88 8.12 1.87 0.43 -0.78 0.47 0.26 -1.86 3.34 -0.47 -0.26 0.47 -0.84 -3.33 -0.78c0.75,0.67 1.34,1.41 1.77,2.23 0.5,0.98 0.59,1.76 0.26,2.35 -0.23,0.41 -0.52,0.65 -0.88,0.73 -0.36,0.08 -0.75,0 -1.16,-0.23 -0.6,-0.33 -1.17,-0.87 -1.72,-1.61 -0.43,-0.59 -0.9,-1.38 -1.42,-2.38 -0.13,-0.27 -0.34,-0.68 -0.62,-1.23 -0.21,-0.38 -0.46,-0.66 -0.77,-0.83 -0.05,-0.03 -0.14,-0.07 -0.26,-0.11zm4.59 4.71c0.49,0.27 0.84,0.21 1.07,-0.2 0.12,-0.2 0.13,-0.42 0.04,-0.65 -0.17,-0.41 -0.42,-0.89 -0.74,-1.44 -0.43,-0.73 -0.82,-1.21 -1.16,-1.47l-2.28 -0.61c0.17,0.38 0.34,0.76 0.52,1.14 0.2,0.45 0.4,0.81 0.59,1.11 0.2,0.33 0.49,0.71 0.87,1.13 0.44,0.51 0.81,0.83 1.09,0.99zm-2.74 6.43l0.55 -0.62c-0.88,-0.39 -1.84,-0.88 -2.86,-1.46 -0.4,-0.24 -1.06,-0.64 -1.99,-1.2l-0.93 -0.55c0.03,0.27 0.15,0.71 0.36,1.3 0.45,1.29 0.98,2.22 1.61,2.79 0.29,0.26 0.47,0.42 0.53,0.46 0.31,0.23 0.52,0.27 0.64,0.14 0.13,-0.14 0.34,-0.1 0.64,0.11 0.05,0.04 0.24,0.2 0.57,0.5 0.16,0.15 0.14,0.33 -0.06,0.56 -0.05,0.05 -0.13,0.12 -0.24,0.22 -0.11,0.09 -0.2,0.16 -0.25,0.22l-0.11 0.12c-0.05,0.06 -0.11,0.14 -0.19,0.25 -0.07,0.11 -0.13,0.19 -0.17,0.24 -0.19,0.21 -0.41,0.23 -0.65,0.04l-0.34 -0.31c-0.42,-0.38 -0.78,-0.88 -1.09,-1.51 -0.19,-0.35 -0.43,-0.93 -0.73,-1.74l-1.02 -2.77c-0.22,-0.54 -0.41,-0.89 -0.57,-1.03 -0.11,-0.1 -0.2,-0.13 -0.27,-0.11 -0.07,0.03 -0.16,0.1 -0.26,0.21l-0.58 0.64 -0.4 -0.36 2.81 -3.09 0.4 0.36 -0.52 0.57c1.84,1.26 3.91,2.44 6.2,3.53 0.13,0.06 0.27,0.13 0.42,0.22l0.39 0.19 0.62 -0.69 0.39 0.36 -2.51 2.77 -0.39 -0.36zm-21.67 -2.86l-0.11 -0.07 0.29 -0.11 -0.18 0.18zm6.54 5.19l3.57 -2.66c0.17,-0.13 0.42,-0.33 0.76,-0.6 0.34,-0.27 0.6,-0.47 0.77,-0.59 0.21,-0.16 0.41,-0.13 0.59,0.11 0.03,0.05 0.1,0.25 0.19,0.61 0.04,0.2 0.15,0.43 0.3,0.69 0.18,0.33 0.3,0.55 0.34,0.67 0.07,0.18 0.04,0.32 -0.09,0.41 -0.11,0.08 -0.21,0.1 -0.32,0.04 -0.04,-0.02 -0.15,-0.1 -0.33,-0.24 -0.59,-0.46 -1.09,-0.68 -1.51,-0.68 -0.28,0 -0.58,0.13 -0.92,0.38l-0.62 0.46 1.91 2.56c0.35,0.04 0.62,0.04 0.83,0 0.17,-0.03 0.44,-0.12 0.8,-0.28 0.07,-0.03 0.65,-0.29 1.73,-0.79 0.51,-0.14 1.03,0.14 1.57,0.86l0.95 1.28c0.17,0.21 0.23,0.43 0.19,0.64 -0.03,0.22 -0.15,0.4 -0.36,0.56l-5.03 3.7 -0.32 -0.42 0.85 -0.64 -4.7 -6.29 -0.85 0.63 -0.3 -0.41zm7.43 4.9c0.29,-0.18 0.62,-0.4 0.97,-0.66 0.19,-0.14 0.3,-0.24 0.33,-0.3 0.12,-0.2 0.18,-0.33 0.18,-0.4 0.01,-0.13 -0.09,-0.32 -0.3,-0.6l-0.85 -1.14c-0.13,-0.17 -0.26,-0.27 -0.39,-0.3 -0.08,-0.02 -0.25,-0.01 -0.5,0.02 -0.55,0.08 -0.89,0.12 -1.02,0.13 -0.3,0.01 -0.6,-0.02 -0.91,-0.09l2.49 3.34zm-11.39 -3.06c0.08,-0.04 0.19,-0.03 0.34,0.03 0.12,0.04 0.23,0.09 0.34,0.13 0.34,0.13 0.86,0.28 1.57,0.47 0.74,0.21 1.32,0.45 1.73,0.72 0.5,0.34 0.9,0.8 1.19,1.41 0.26,0.53 0.39,1.05 0.4,1.57 0,0.46 -0.1,1 -0.31,1.61 -0.11,0.31 -0.31,0.9 -0.62,1.78 -0.2,0.55 -0.37,0.86 -0.5,0.93 -0.15,0.07 -0.67,-0.02 -1.57,-0.25 -0.97,-0.27 -1.63,-0.48 -1.98,-0.66 -0.74,-0.38 -1.3,-0.95 -1.67,-1.72 -0.4,-0.81 -0.5,-1.72 -0.32,-2.73 0.11,-0.62 0.36,-1.33 0.73,-2.11 0.07,-0.15 0.16,-0.36 0.28,-0.65 0.08,-0.26 0.21,-0.44 0.39,-0.53zm-0.02 1.88c-0.36,0.25 -0.6,0.6 -0.71,1.05 -0.1,0.46 -0.06,0.89 0.14,1.3 0.31,0.63 1.31,1.23 3.01,1.81 0.47,0.15 0.76,0.26 0.87,0.31 0.33,0.15 0.57,0.34 0.71,0.54 0.28,-0.3 0.48,-0.66 0.6,-1.06 0.14,-0.44 0.16,-0.84 0.05,-1.2 -0.03,-0.11 -0.05,-0.18 -0.07,-0.21 -0.01,-0.03 -0.05,-0.09 -0.12,-0.18 -0.23,-0.32 -0.68,-0.63 -1.35,-0.92 -0.31,-0.12 -0.71,-0.29 -1.21,-0.5l-1.07 -0.43c-0.4,-0.17 -0.68,-0.34 -0.85,-0.51zm-7.32 4.31l-2.01 3.94 0.47 2.15 0.85 -0.19 0.12 0.52 -3.82 0.83 -0.11 -0.52 1.03 -0.23 -1.66 -7.65 -1.03 0.22 -0.12 -0.52 3.68 -0.8 0.11 0.53 -0.71 0.15 1.01 4.68 2.01 -3.95 -0.29 -1.32 -0.71 0.15 -0.12 -0.52 3.68 -0.8 0.11 0.53 -1.03 0.22 1.66 7.66 1.03 -0.23 0.11 0.52 -3.8 0.83 -0.11 -0.52 0.84 -0.19 -1.19 -5.49zm-1 -5.09l0.59 0.09c-0.08,0.51 -0.24,0.97 -0.49,1.38 -0.31,0.49 -0.68,0.79 -1.11,0.88 -0.49,0.11 -0.95,-0.03 -1.37,-0.4 -0.36,-0.32 -0.63,-0.73 -0.82,-1.25l0.45 -0.24c0.4,0.63 0.87,0.89 1.4,0.77 0.72,-0.15 1.17,-0.57 1.35,-1.23zm-9.37 3.48c0.08,0 0.17,0.06 0.29,0.18 0.08,0.09 0.16,0.18 0.24,0.26 0.25,0.27 0.64,0.64 1.19,1.12 0.58,0.52 0.99,0.99 1.24,1.42 0.3,0.52 0.45,1.11 0.45,1.78 -0.01,0.59 -0.12,1.12 -0.35,1.59 -0.2,0.41 -0.53,0.85 -0.98,1.31 -0.24,0.23 -0.69,0.67 -1.35,1.31 -0.42,0.41 -0.71,0.61 -0.86,0.61 -0.16,0 -0.59,-0.3 -1.29,-0.91 -0.76,-0.67 -1.26,-1.16 -1.49,-1.47 -0.5,-0.67 -0.74,-1.43 -0.74,-2.28 0.01,-0.9 0.32,-1.77 0.93,-2.59 0.38,-0.51 0.9,-1.03 1.59,-1.57 0.12,-0.1 0.3,-0.25 0.53,-0.46 0.19,-0.2 0.39,-0.3 0.6,-0.3zm-0.86 1.68c-0.44,0.06 -0.8,0.27 -1.1,0.63 -0.3,0.36 -0.45,0.76 -0.45,1.22 0,0.7 0.63,1.69 1.9,2.95 0.35,0.35 0.56,0.57 0.64,0.66 0.22,0.29 0.36,0.56 0.39,0.81 0.39,-0.15 0.72,-0.38 1.01,-0.69 0.32,-0.33 0.52,-0.68 0.58,-1.05 0.02,-0.11 0.03,-0.18 0.03,-0.22 0,-0.03 -0.01,-0.1 -0.03,-0.21 -0.06,-0.4 -0.34,-0.87 -0.8,-1.43 -0.23,-0.25 -0.51,-0.57 -0.87,-0.98l-0.77 -0.86c-0.28,-0.33 -0.46,-0.61 -0.53,-0.83zm-9.48 1.65l0.46 0.09 0.26 -0.3 0.28 -0.41 0.37 -0.48c0.65,-0.84 1.09,-1.37 1.34,-1.6 0.55,-0.51 1.11,-0.7 1.69,-0.58 0.41,0.08 0.76,0.23 1.04,0.44 -0.09,0.15 -0.23,0.36 -0.4,0.66 -0.02,0.03 -0.06,0.16 -0.12,0.38 -0.08,0.26 -0.14,0.46 -0.17,0.6l-0.25 -0.05 -0.37 -0.24c-0.17,-0.15 -0.38,-0.25 -0.64,-0.3 -0.49,-0.1 -1.34,0.61 -2.55,2.13 1.15,0.51 1.93,1.16 2.35,1.93 0.42,0.78 0.51,1.77 0.26,2.99l0.75 0.15 -0.11 0.53 -3.38 -0.7 0.1 -0.52 0.49 0.1c0.25,-1.22 0.3,-2.11 0.16,-2.69 -0.19,-0.75 -0.74,-1.31 -1.65,-1.69l-0.8 3.91 0.78 0.16 -0.11 0.52 -3.74 -0.76 0.11 -0.53 1.03 0.21 1.57 -7.67 -1.03 -0.21 0.1 -0.53 3.83 0.79 -0.11 0.52 -0.86 -0.17 -0.68 3.32zm-4.12 -1.67l-3.08 -1.27 0.19 -0.47 0.51 0.21c0.57,-1.4 0.44,-2.27 -0.4,-2.61 -0.55,-0.23 -1.06,-0.08 -1.55,0.43 -0.34,0.36 -0.64,0.86 -0.91,1.51 -0.31,0.75 -0.57,1.79 -0.78,3.12 -0.11,0.72 -0.25,1.3 -0.43,1.74 -0.05,0.12 -0.15,0.28 -0.29,0.46l-0.12 0.15c0.03,0.06 0.11,0.12 0.24,0.18 0.54,0.22 1.14,0.05 1.81,-0.5 0.58,-0.47 0.99,-1 1.23,-1.59 0.06,-0.14 0.1,-0.24 0.12,-0.31l-0.5 -0.2 0.21 -0.5 3.08 1.27 -0.21 0.5 -0.48 -0.2c-0.39,0.95 -1.17,1.6 -2.32,1.95 -1.08,0.32 -2.11,0.28 -3.09,-0.12 -0.34,-0.14 -0.61,-0.31 -0.81,-0.51l0.07 -0.16c0.13,-0.3 0.14,-0.69 0.05,-1.18 -0.02,-0.13 -0.12,-0.52 -0.3,-1.16 -0.19,-0.69 -0.26,-1.28 -0.22,-1.77 0.03,-0.33 0.12,-0.7 0.29,-1.1l0.13 -0.31c0.43,-1.05 1.13,-1.79 2.08,-2.19 0.96,-0.41 1.96,-0.4 3.02,0.04 0.87,0.36 1.5,0.88 1.89,1.55 0.38,0.68 0.48,1.47 0.28,2.37l0.48 0.2 -0.19 0.47zm-16.81 -2.93l3.13 -4.65c0.71,-1.05 1.38,-1.58 2.03,-1.61 0.54,-0.01 1.36,0.35 2.46,1.09 0.58,0.39 0.98,0.86 1.21,1.41 0.26,0.63 0.21,1.22 -0.16,1.77 -0.33,0.49 -0.81,0.74 -1.45,0.74 -0.49,0 -0.88,-0.1 -1.18,-0.31 -0.12,-0.06 -0.22,-0.11 -0.31,-0.17 -0.15,-0.11 -0.29,-0.28 -0.4,-0.51l-0.91 -0.09c0.15,0.46 0.34,0.87 0.57,1.22 0.12,0.18 0.37,0.47 0.75,0.85 0.28,0.29 0.44,0.45 0.46,0.49 0.24,0.31 0.34,0.59 0.3,0.85 -0.03,0.14 -0.11,0.32 -0.26,0.53l-0.87 1.3 -0.24 0.36c-0.13,0.16 -0.34,0.24 -0.61,0.22 -0.28,-0.02 -0.52,-0.1 -0.71,-0.23l-4.98 -3.41 0.3 -0.44 0.87 0.59zm1.64 1.1l1.3 0.88c0.21,0.14 0.4,0.16 0.56,0.06 0.1,-0.06 0.23,-0.21 0.39,-0.46l0.8 -1.19c0.12,-0.17 0.17,-0.33 0.15,-0.46 0,-0.09 -0.07,-0.24 -0.19,-0.47 -0.24,-0.46 -0.39,-0.77 -0.46,-0.92 -0.13,-0.29 -0.2,-0.59 -0.23,-0.9l-2.32 3.46zm2.58 -3.81l1.06 -0.05c0.04,0.07 0.1,0.13 0.17,0.18 0.24,0.16 0.44,0.22 0.6,0.18 0.25,-0.06 0.39,-0.1 0.44,-0.11 0.17,-0.11 0.4,-0.36 0.67,-0.76 0.48,-0.72 0.44,-1.27 -0.12,-1.65 -0.39,-0.25 -0.81,-0.19 -1.28,0.2 -0.31,0.26 -0.68,0.71 -1.11,1.34l-0.23 0.35c-0.07,0.1 -0.14,0.21 -0.2,0.32zm-3.26 -8.03c0.06,0.06 0.09,0.17 0.09,0.33 0,0.12 -0.01,0.24 -0.01,0.36 -0.01,0.36 0.02,0.9 0.07,1.64 0.06,0.77 0.03,1.39 -0.09,1.87 -0.15,0.58 -0.46,1.11 -0.93,1.59 -0.41,0.42 -0.86,0.72 -1.35,0.9 -0.43,0.16 -0.97,0.24 -1.62,0.25 -0.33,0 -0.96,0.01 -1.88,0.01 -0.59,0 -0.94,-0.06 -1.05,-0.16 -0.11,-0.12 -0.2,-0.64 -0.28,-1.56 -0.08,-1.01 -0.1,-1.7 -0.05,-2.09 0.11,-0.83 0.46,-1.54 1.06,-2.15 0.64,-0.64 1.46,-1.05 2.47,-1.21 0.63,-0.1 1.37,-0.11 2.24,-0.02 0.16,0.01 0.39,0.03 0.7,0.05 0.28,-0.02 0.49,0.05 0.63,0.19zm-1.78 0.61c-0.35,-0.26 -0.76,-0.37 -1.23,-0.32 -0.46,0.05 -0.85,0.24 -1.17,0.57 -0.49,0.5 -0.73,1.65 -0.7,3.44 0.01,0.5 0.01,0.8 0,0.92 -0.04,0.36 -0.13,0.65 -0.28,0.85 0.38,0.16 0.78,0.23 1.2,0.21 0.46,-0.01 0.85,-0.13 1.16,-0.35 0.09,-0.07 0.14,-0.11 0.17,-0.14 0.02,-0.02 0.06,-0.08 0.13,-0.17 0.22,-0.33 0.36,-0.86 0.41,-1.58 0.02,-0.34 0.04,-0.77 0.06,-1.31l0.05 -1.15c0.03,-0.44 0.1,-0.76 0.2,-0.97zm-7.72 -5.65l0.26 0.38 0.4 -0.04 0.48 -0.1 0.61 -0.09c1.04,-0.15 1.73,-0.23 2.07,-0.23 0.74,0.02 1.29,0.27 1.62,0.75 0.24,0.34 0.39,0.69 0.45,1.04 -0.17,0.04 -0.42,0.11 -0.75,0.19 -0.04,0.02 -0.15,0.08 -0.35,0.2 -0.24,0.13 -0.42,0.23 -0.54,0.31l-0.14 -0.2 -0.1 -0.44c-0.02,-0.22 -0.11,-0.44 -0.26,-0.65 -0.28,-0.41 -1.38,-0.49 -3.31,-0.23 0.47,1.17 0.59,2.18 0.36,3.03 -0.24,0.84 -0.86,1.62 -1.88,2.33l0.43 0.62 -0.44 0.31 -1.96 -2.84 0.44 -0.31 0.28 0.42c1.02,-0.71 1.68,-1.32 1.97,-1.84 0.38,-0.67 0.38,-1.46 -0.02,-2.35l-3.28 2.26 0.45 0.65 -0.44 0.31 -2.17 -3.14 0.44 -0.31 0.6 0.87 6.45 -4.45 -0.61 -0.87 0.44 -0.31 2.22 3.21 -0.44 0.31 -0.49 -0.72 -2.79 1.93zm-1.58 -3.83l-1.16 -3.13 0.48 -0.17 0.19 0.51c1.42,-0.52 1.97,-1.21 1.65,-2.06 -0.2,-0.56 -0.66,-0.84 -1.36,-0.85 -0.5,0 -1.08,0.12 -1.73,0.36 -0.77,0.28 -1.71,0.79 -2.82,1.53 -0.61,0.42 -1.14,0.71 -1.58,0.87 -0.12,0.04 -0.3,0.08 -0.53,0.1l-0.2 0.01c-0.02,0.07 -0.01,0.17 0.04,0.3 0.2,0.54 0.73,0.87 1.59,0.99 0.74,0.11 1.41,0.05 2,-0.17 0.14,-0.05 0.25,-0.09 0.31,-0.12l-0.18 -0.51 0.5 -0.18 1.15 3.13 -0.5 0.18 -0.18 -0.49c-0.97,0.36 -1.97,0.23 -3.01,-0.38 -0.97,-0.58 -1.64,-1.36 -2.01,-2.36 -0.12,-0.34 -0.18,-0.65 -0.17,-0.93l0.16 -0.06c0.31,-0.11 0.61,-0.37 0.91,-0.76 0.08,-0.11 0.3,-0.45 0.65,-1.01 0.38,-0.61 0.76,-1.06 1.15,-1.37 0.26,-0.2 0.6,-0.37 1,-0.53l0.32 -0.11c1.07,-0.4 2.08,-0.38 3.02,0.05 0.95,0.42 1.62,1.17 2.02,2.24 0.32,0.88 0.37,1.7 0.13,2.44 -0.23,0.74 -0.75,1.35 -1.55,1.81l0.18 0.49 -0.47 0.18zm-0.4 -12.7c0.01,0.08 -0.03,0.19 -0.13,0.32 -0.07,0.09 -0.15,0.19 -0.23,0.28 -0.22,0.28 -0.53,0.73 -0.92,1.35 -0.42,0.65 -0.82,1.13 -1.21,1.43 -0.47,0.38 -1.03,0.62 -1.7,0.71 -0.58,0.09 -1.12,0.06 -1.62,-0.1 -0.44,-0.13 -0.92,-0.39 -1.44,-0.77 -0.27,-0.2 -0.77,-0.58 -1.51,-1.13 -0.47,-0.36 -0.71,-0.61 -0.73,-0.76 -0.02,-0.16 0.21,-0.63 0.71,-1.42 0.55,-0.84 0.95,-1.41 1.23,-1.69 0.58,-0.59 1.29,-0.95 2.14,-1.07 0.89,-0.14 1.79,0.04 2.7,0.52 0.56,0.3 1.16,0.74 1.79,1.33 0.12,0.11 0.29,0.26 0.53,0.46 0.23,0.16 0.36,0.34 0.39,0.54zm-1.79 -0.59c-0.12,-0.42 -0.38,-0.75 -0.78,-0.99 -0.4,-0.24 -0.83,-0.33 -1.28,-0.26 -0.7,0.1 -1.58,0.88 -2.63,2.32 -0.3,0.4 -0.48,0.65 -0.56,0.73 -0.25,0.27 -0.5,0.44 -0.74,0.52 0.21,0.35 0.49,0.65 0.84,0.89 0.37,0.27 0.75,0.41 1.13,0.41 0.11,0.01 0.18,0 0.21,0 0.04,-0.01 0.11,-0.03 0.21,-0.06 0.38,-0.13 0.81,-0.47 1.29,-1.01 0.21,-0.26 0.49,-0.59 0.84,-1.01l0.73 -0.89c0.29,-0.33 0.53,-0.54 0.74,-0.65zm-7.42 -11.91l6.51 -1.08c-1.45,-1.04 -2.78,-1.59 -3.99,-1.65 -0.25,-0.01 -0.7,0.01 -1.34,0.06 -0.36,0.02 -0.62,0.03 -0.77,0.03l-0.24 -0.01c-0.08,-0.01 -0.16,-0.01 -0.24,-0.02 -0.15,0 -0.26,-0.03 -0.32,-0.06 -0.1,-0.06 -0.14,-0.21 -0.13,-0.44 0.01,-0.08 0.02,-0.19 0.04,-0.34 0.03,-0.15 0.05,-0.26 0.06,-0.32 0,-0.07 0,-0.12 0,-0.15 0.01,-0.07 0,-0.17 -0.01,-0.32 -0.01,-0.14 -0.02,-0.25 -0.02,-0.32 0.02,-0.29 0.33,-0.42 0.94,-0.39 1.11,0.05 2.15,0.43 3.14,1.14 0.25,0.17 0.69,0.53 1.35,1.07 0.58,0.47 1.03,0.81 1.36,1.02 0.46,0.28 0.88,0.43 1.26,0.45l0.15 0c0.07,-0.01 0.12,-0.02 0.16,-0.02l0.04 -0.93 0.54 0.03 -0.18 3.63 -0.53 -0.03 0.03 -0.71 -7.52 1.25 7.38 1.75 0.02 -0.54 0.54 0.03 -0.17 3.41 -0.53 -0.02 0.04 -0.82 -7.91 1.32 -0.04 0.87 -0.54 -0.03 0.17 -3.39 0.53 0.03 -0.02 0.56 6.76 -1.12 -6.63 -1.58 -0.04 0.68 -0.53 -0.02 0.18 -3.71 0.53 0.03 -0.03 0.66zm1.06 -9.17c1.04,-3.64 2.48,-7.11 4.27,-10.37l1.33 0.73c-1.73,3.16 -3.13,6.53 -4.14,10.06l-1.46 -0.42zm12.03 -6.12l-1.34 -0.73c-1.53,2.78 -2.76,5.75 -3.65,8.87l1.46 0.42c0.86,-3.01 2.05,-5.87 3.53,-8.56zm-3.1 -1.69l-1.33 -0.73c-1.65,3.01 -2.98,6.22 -3.95,9.59l1.46 0.42c0.94,-3.26 2.23,-6.37 3.82,-9.28zm79.85 9.27l1.45 -0.45c-0.97,-3.09 -2.27,-6.03 -3.87,-8.78l-1.31 0.77c1.54,2.65 2.79,5.49 3.73,8.46zm3.36 -1.05l1.45 -0.45c-1.04,-3.34 -2.45,-6.52 -4.18,-9.49l-1.31 0.76c1.67,2.88 3.03,5.95 4.04,9.18zm3.63 -1.14l1.45 -0.45c-1.13,-3.61 -2.66,-7.04 -4.52,-10.26l-1.31 0.76c1.81,3.12 3.28,6.46 4.38,9.95zm-21.47 -29.31l-0.24 0.48 -0.93 -0.47 -3.5 7.01 0.38 0.19c0.12,0.06 0.31,0.13 0.57,0.22 0.26,0.09 0.45,0.17 0.57,0.23 0.17,0.08 0.27,0.2 0.3,0.37 0.03,0.16 0,0.33 -0.08,0.5 -0.09,0.18 -0.29,0.41 -0.59,0.71 -0.5,0.48 -0.84,0.86 -1.03,1.16 -0.1,0.14 -0.18,0.24 -0.24,0.3 -0.12,0.1 -0.25,0.12 -0.37,0.05 -0.16,-0.07 -0.21,-0.22 -0.17,-0.44 0.05,-0.29 0.14,-0.69 0.25,-1.19 0.12,-0.54 0.15,-0.93 0.09,-1.17 -0.09,-0.38 -0.39,-0.69 -0.91,-0.95l-5.95 -2.98 0.24 -0.47 0.94 0.47 3.5 -7.01 -0.94 -0.47 0.24 -0.48 3.49 1.75 -0.24 0.48 -0.78 -0.4 -3.5 7.01 2.47 1.23 3.5 -7 -0.8 -0.4 0.24 -0.48 3.49 1.75zm17.1 15.99l-0.42 0.34 -0.66 -0.83 -6.12 4.89 0.66 0.83 -0.42 0.33 -2.27 -2.84 0.42 -0.33 0.38 0.47 3.04 -2.43c-0.6,-0.75 -1.38,-1.03 -2.33,-0.83 -0.73,0.14 -1.52,0.54 -2.35,1.21l0.31 0.39 -0.42 0.34 -2.05 -2.57 0.42 -0.33 0.37 0.46c0.94,-0.75 1.92,-1.08 2.96,-0.98 1.03,0.09 1.92,0.61 2.67,1.54l0.14 -0.11c-0.52,-0.87 -0.82,-1.69 -0.9,-2.48 -0.11,-1.01 0.18,-1.79 0.88,-2.35 0.4,-0.32 0.77,-0.38 1.11,-0.2 0.22,0.12 0.55,0.46 1,1.01l3.58 4.47zm-4.66 -0.15l2.35 -1.88 -0.9 -1.12c-0.41,-0.51 -0.81,-0.6 -1.22,-0.27 -0.48,0.39 -0.74,0.91 -0.77,1.56 -0.03,0.64 0.15,1.21 0.54,1.71zm-6.41 -8.04l-4.35 0.8 -1.42 1.66 0.67 0.57 -0.35 0.41 -2.97 -2.53 0.34 -0.41 0.81 0.69 5.08 -5.97 -0.81 -0.69 0.35 -0.4 2.97 2.53 -0.35 0.4 -0.66 -0.56 -3.11 3.65 4.36 -0.81 0.88 -1.03 -0.66 -0.56 0.35 -0.41 2.96 2.53 -0.35 0.4 -0.8 -0.68 -5.08 5.96 0.81 0.69 -0.35 0.41 -2.96 -2.53 0.34 -0.4 0.66 0.56 3.64 -4.28zm-1.86 11.42l-0.29 0.28 -0.54 -0.57 -4.26 4.05 0.55 0.57 -0.29 0.28 -1.88 -1.97 0.29 -0.28 0.31 0.33 2.12 -2.02c-0.5,-0.52 -1.1,-0.67 -1.8,-0.47 -0.54,0.15 -1.09,0.51 -1.68,1.06l0.26 0.27 -0.29 0.28 -1.7 -1.78 0.29 -0.28 0.31 0.32c0.65,-0.62 1.37,-0.93 2.15,-0.92 0.78,0 1.47,0.33 2.09,0.98l0.1 -0.1c-0.44,-0.61 -0.72,-1.21 -0.83,-1.79 -0.15,-0.75 0.02,-1.35 0.51,-1.81 0.27,-0.27 0.54,-0.34 0.81,-0.23 0.17,0.08 0.44,0.31 0.81,0.7l2.96 3.1zm-3.48 0.19l1.63 -1.55 -0.75 -0.78c-0.33,-0.36 -0.64,-0.4 -0.92,-0.13 -0.34,0.33 -0.5,0.73 -0.48,1.22 0.02,0.48 0.19,0.9 0.52,1.24zm-5.61 -5.58l-3.16 1.02 -0.88 1.39 0.55 0.35 -0.21 0.34 -2.47 -1.58 0.22 -0.34 0.66 0.43 3.17 -4.95 -0.66 -0.43 0.21 -0.33 2.47 1.58 -0.22 0.33 -0.55 -0.35 -1.94 3.03 3.16 -1.04 0.54 -0.86 -0.54 -0.35 0.22 -0.34 2.45 1.58 -0.21 0.34 -0.67 -0.43 -3.17 4.95 0.67 0.42 -0.22 0.34 -2.46 -1.57 0.22 -0.34 0.54 0.35 2.28 -3.54zm-9.87 -3.56l-0.99 2.92 0.62 0.21 -0.13 0.38 -2.77 -0.94 0.13 -0.38 0.75 0.25 1.88 -5.56 -0.75 -0.26 0.13 -0.38 2.77 0.94 -0.12 0.38 -0.63 -0.21 -0.75 2.21 1.99 0.68 0.75 -2.22 -0.61 -0.2 0.13 -0.38 2.76 0.93 -0.13 0.38 -0.75 -0.25 -1.88 5.56 0.75 0.26 -0.13 0.38 -2.76 -0.94 0.12 -0.38 0.62 0.21 0.98 -2.91 -1.98 -0.68zm-0.95 -15.72l-0.95 -0.21 0.11 -0.52 3.86 0.84 -0.11 0.53 -0.98 -0.22 0.56 8.32 0.87 0.19 -0.12 0.52 -3.73 -0.82 0.12 -0.52 0.93 0.21 -0.22 -3.42c-0.42,0.92 -0.96,1.7 -1.62,2.34 -0.79,0.77 -1.51,1.08 -2.17,0.93 -0.46,-0.1 -0.77,-0.31 -0.95,-0.63 -0.18,-0.32 -0.22,-0.72 -0.12,-1.18 0.15,-0.67 0.5,-1.37 1.05,-2.11 0.44,-0.58 1.06,-1.26 1.86,-2.04 0.23,-0.21 0.56,-0.53 1,-0.96 0.31,-0.31 0.5,-0.63 0.57,-0.97 0.01,-0.06 0.03,-0.15 0.04,-0.28zm-3.19 5.75c-0.12,0.55 0.04,0.87 0.5,0.97 0.23,0.05 0.44,0 0.63,-0.15 0.35,-0.28 0.73,-0.66 1.17,-1.13 0.57,-0.62 0.93,-1.13 1.07,-1.53l-0.07 -2.37c-0.32,0.28 -0.63,0.56 -0.95,0.84 -0.36,0.32 -0.66,0.61 -0.89,0.88 -0.26,0.29 -0.53,0.68 -0.83,1.16 -0.35,0.57 -0.56,1.01 -0.63,1.33zm-6.95 -1.55l-0.04 2.86 1.06 0.01 -0.01 0.54 -4.09 -0.06 0.01 -0.54 1.06 0.02 0.1 -7.51c0.01,-0.69 1.05,-1.01 3.11,-0.99 0.89,0.02 1.62,0.23 2.19,0.64 0.68,0.46 1,1.11 0.99,1.95 -0.01,0.67 -0.2,1.23 -0.58,1.69 -0.41,0.51 -0.94,0.75 -1.59,0.74 -0.25,0 -0.47,-0.05 -0.68,-0.14 -0.09,-0.05 -0.2,-0.12 -0.36,-0.2l-0.27 -0.14 -0.9 1.13zm0.01 -0.77l0.82 -1.02c0.16,0.15 0.32,0.22 0.47,0.22 0.55,0.01 0.83,-0.51 0.85,-1.57 0.01,-1.32 -0.33,-1.98 -1.04,-1.99 -0.48,-0.01 -0.8,0.28 -0.94,0.87 -0.08,0.29 -0.12,0.88 -0.14,1.78l-0.02 1.71zm-8.95 0.65l0.46 -0.09c-0.09,-0.18 -0.22,-0.34 -0.4,-0.46 -0.18,-0.13 -0.35,-0.18 -0.53,-0.14 -0.6,0.11 -1.04,0.39 -1.3,0.84 0.21,0.56 0.41,1.02 0.59,1.37 0.38,0.72 0.63,1.37 0.74,1.96 0.04,0.22 0.05,0.45 0.01,0.68 0.12,0.04 0.28,0.04 0.48,0 1.27,-0.24 1.92,-1.01 1.97,-2.32l-0.63 0.12 -0.1 -0.5 3.27 -0.62 0.1 0.5 -0.46 0.09c-0.24,0.74 -0.64,1.4 -1.2,1.98 -0.61,0.6 -1.27,0.98 -2,1.11 -0.81,0.16 -1.51,0.21 -2.08,0.15 -0.01,-0.14 -0.02,-0.24 -0.04,-0.31 -0.09,-0.49 -0.45,-1 -1.07,-1.52 -0.62,-0.53 -1.03,-0.9 -1.23,-1.14 -0.34,-0.41 -0.57,-0.91 -0.68,-1.48 -0.26,-1.41 0.02,-2.57 0.85,-3.45 0.65,-0.7 1.54,-1.15 2.66,-1.37 0.79,-0.15 1.5,-0.13 2.14,0.06 0.74,0.21 1.3,0.62 1.69,1.25l0.59 -0.12 0.1 0.53 -3.09 0.59 -0.1 -0.53 0.4 -0.07c-0.38,-0.92 -1.02,-1.29 -1.92,-1.12 -0.64,0.12 -1.05,0.52 -1.24,1.21 -0.15,0.54 -0.16,1.16 -0.03,1.86 0.04,0.21 0.09,0.42 0.16,0.61 0.48,-0.62 1.12,-1.01 1.94,-1.17 0.5,-0.09 0.98,-0.05 1.46,0.12 0.47,0.17 0.83,0.47 1.08,0.88l0.51 -0.09 0.11 0.54 -3.11 0.59 -0.1 -0.54zm-9.43 -1.9l0.23 0.48 -0.66 0.31c0.95,1.62 2.16,3.33 3.63,5.12 0.73,0.88 1.17,1.28 1.33,1.21 0.03,-0.01 0.09,-0.07 0.18,-0.17 0.09,-0.1 0.18,-0.17 0.28,-0.22 0.22,-0.1 0.4,-0.03 0.52,0.23 0.03,0.07 0.05,0.26 0.07,0.59 0.03,0.32 0.07,0.63 0.14,0.93 0.07,0.23 0.14,0.47 0.2,0.71 0.03,0.23 -0.03,0.39 -0.19,0.46 -0.18,0.08 -0.38,-0.03 -0.59,-0.35 -0.4,-0.63 -0.87,-0.96 -1.4,-0.99 -0.3,-0.01 -0.72,0.1 -1.26,0.35l-1.19 0.56c-0.72,0.33 -1.18,0.61 -1.36,0.82 -0.29,0.33 -0.38,0.82 -0.26,1.48 0.02,0.12 0.05,0.3 0.1,0.56 0,0.22 -0.07,0.36 -0.2,0.43 -0.12,0.05 -0.24,0.03 -0.37,-0.08 -0.17,-0.25 -0.4,-0.57 -0.68,-0.97 -0.1,-0.12 -0.33,-0.37 -0.71,-0.75 -0.06,-0.05 -0.1,-0.11 -0.13,-0.17 -0.11,-0.23 -0.01,-0.41 0.29,-0.55 0.05,-0.03 0.12,-0.05 0.22,-0.08 0.1,-0.02 0.18,-0.05 0.23,-0.07 0.16,-0.08 0.22,-0.23 0.19,-0.45 -0.02,-0.1 -0.07,-0.3 -0.17,-0.61 -0.41,-1.3 -0.53,-2.84 -0.34,-4.64 0.05,-0.43 0.07,-0.76 0.06,-0.99 -0.01,-0.4 -0.07,-0.73 -0.19,-0.99 -0.16,-0.34 -0.47,-0.41 -0.92,-0.2l-0.63 0.29 -0.22 -0.49 3.8 -1.76zm0.5 8.99l2.02 -0.93 -0.63 -0.76c-0.6,-0.71 -1.04,-1.25 -1.34,-1.64 -0.23,-0.29 -0.64,-0.86 -1.24,-1.68l-0.41 -0.57c-0.21,0.87 -0.27,1.88 -0.18,3.01 0.08,1.03 0.24,1.78 0.46,2.27 0.15,0.32 0.33,0.49 0.55,0.51 0.17,0.02 0.42,-0.05 0.77,-0.21zm-9.15 0.93l0.38 -0.27c-0.16,-0.13 -0.35,-0.22 -0.56,-0.25 -0.22,-0.04 -0.4,-0.01 -0.54,0.1 -0.5,0.36 -0.77,0.8 -0.82,1.31 0.43,0.42 0.8,0.75 1.12,1 0.65,0.48 1.15,0.97 1.5,1.45 0.14,0.19 0.23,0.39 0.3,0.61 0.13,-0.02 0.27,-0.08 0.43,-0.2 1.05,-0.76 1.31,-1.74 0.8,-2.93l-0.52 0.37 -0.3 -0.41 2.7 -1.96 0.3 0.42 -0.38 0.27c0.1,0.78 0.02,1.55 -0.25,2.31 -0.29,0.8 -0.73,1.42 -1.33,1.86 -0.67,0.48 -1.28,0.82 -1.82,1.02 -0.07,-0.13 -0.13,-0.22 -0.17,-0.28 -0.29,-0.4 -0.83,-0.71 -1.62,-0.92 -0.78,-0.2 -1.31,-0.37 -1.59,-0.5 -0.49,-0.23 -0.9,-0.58 -1.24,-1.05 -0.85,-1.17 -1.09,-2.33 -0.71,-3.48 0.3,-0.91 0.91,-1.7 1.83,-2.37 0.65,-0.48 1.31,-0.76 1.96,-0.86 0.76,-0.13 1.44,0.01 2.06,0.41l0.49 -0.36 0.31 0.44 -2.55 1.85 -0.31 -0.44 0.33 -0.24c-0.74,-0.67 -1.48,-0.73 -2.22,-0.19 -0.52,0.37 -0.72,0.91 -0.6,1.62 0.09,0.55 0.34,1.12 0.76,1.7 0.13,0.17 0.26,0.33 0.41,0.48 0.16,-0.77 0.58,-1.39 1.25,-1.88 0.42,-0.3 0.87,-0.47 1.38,-0.51 0.5,-0.05 0.95,0.07 1.35,0.33l0.43 -0.3 0.32 0.44 -2.56 1.86 -0.32 -0.45zm-3.75 9.33l-2.57 3.02 -0.4 -0.35 0.68 -0.8 -0.86 -0.74 -0.21 0.47c-0.19,0.43 -0.41,0.8 -0.66,1.09 -0.47,0.55 -1.03,0.9 -1.67,1.05 -0.71,0.16 -1.34,0.02 -1.87,-0.43 -0.55,-0.47 -0.86,-1.17 -0.92,-2.09 -0.05,-0.52 0,-1.24 0.14,-2.16 0.07,-0.42 0.11,-0.75 0.12,-0.97 0.04,-0.38 0.06,-0.79 0.06,-1.22l-0.09 -0.08 -0.69 0.81 -0.41 -0.35 2.57 -3.02 0.41 0.35 -0.68 0.8 0.09 0.08c0.55,-0.1 0.95,-0.18 1.18,-0.24 0.12,-0.02 0.44,-0.12 0.95,-0.28 0.91,-0.29 1.61,-0.45 2.09,-0.49 0.94,-0.08 1.68,0.11 2.23,0.58 0.52,0.44 0.76,1.03 0.71,1.76 -0.04,0.67 -0.29,1.28 -0.75,1.82 -0.26,0.3 -0.58,0.58 -0.97,0.83l-0.44 0.28 0.87 0.74 0.69 -0.8 0.4 0.34zm-6.48 -4.13l4.19 3.57c0.15,-0.11 0.3,-0.25 0.44,-0.41 0.37,-0.43 0.49,-0.92 0.36,-1.46 -0.12,-0.5 -0.39,-0.93 -0.84,-1.31 -0.46,-0.39 -1.06,-0.6 -1.8,-0.63 -0.51,-0.02 -1.29,0.06 -2.35,0.24zm-1.2 1.41c-0.01,0.77 0,1.32 0.03,1.64 0.09,1.1 0.43,1.89 1.02,2.4 0.46,0.39 0.93,0.6 1.42,0.63 0.55,0.03 1.02,-0.17 1.39,-0.61 0.13,-0.15 0.24,-0.31 0.33,-0.49l-4.19 -3.57zm42.77 -7.37l-0.72 -0.09 0.05 -0.4 2.94 0.38 -0.05 0.39 -0.74 -0.09 0.97 6.17 0.66 0.09 -0.05 0.4 -2.84 -0.37 0.05 -0.39 0.71 0.09 -0.39 -2.54c-0.25,0.71 -0.61,1.33 -1.06,1.86 -0.53,0.62 -1.05,0.9 -1.56,0.84 -0.34,-0.05 -0.59,-0.18 -0.75,-0.41 -0.16,-0.23 -0.21,-0.52 -0.17,-0.87 0.07,-0.51 0.28,-1.06 0.65,-1.65 0.28,-0.46 0.7,-1.01 1.25,-1.65 0.16,-0.17 0.38,-0.43 0.68,-0.78 0.21,-0.25 0.33,-0.51 0.36,-0.77 0.01,-0.04 0.01,-0.11 0.01,-0.21zm-2 4.51c-0.05,0.42 0.1,0.65 0.44,0.69 0.18,0.02 0.34,-0.03 0.47,-0.15 0.23,-0.23 0.5,-0.54 0.79,-0.92 0.39,-0.5 0.62,-0.91 0.7,-1.22l-0.21 -1.76c-0.22,0.23 -0.44,0.46 -0.65,0.68 -0.25,0.27 -0.45,0.51 -0.61,0.73 -0.17,0.23 -0.35,0.54 -0.54,0.92 -0.23,0.45 -0.35,0.79 -0.39,1.03zm-6.58 1.56l-0.32 -4.19c-0.07,-0.94 0.08,-1.57 0.45,-1.89 0.31,-0.26 0.96,-0.42 1.95,-0.5 0.52,-0.04 0.98,0.05 1.37,0.27 0.45,0.25 0.69,0.62 0.73,1.11 0.03,0.45 -0.14,0.82 -0.51,1.12 -0.29,0.22 -0.57,0.34 -0.84,0.36 -0.1,0.02 -0.18,0.03 -0.26,0.04 -0.14,0.01 -0.3,-0.03 -0.48,-0.11l-0.57 0.36c0.3,0.21 0.6,0.36 0.9,0.46 0.16,0.05 0.44,0.11 0.84,0.16 0.3,0.03 0.46,0.06 0.5,0.07 0.28,0.07 0.47,0.19 0.56,0.36 0.05,0.09 0.09,0.24 0.1,0.43l0.09 1.17 0.03 0.32c-0.01,0.16 -0.09,0.3 -0.26,0.42 -0.18,0.12 -0.35,0.18 -0.52,0.19l-4.52 0.31 -0.03 -0.4 0.79 -0.06zm1.47 -0.11l1.18 -0.09c0.19,-0.01 0.31,-0.09 0.36,-0.22 0.02,-0.08 0.03,-0.23 0.01,-0.45l-0.08 -1.07c-0.01,-0.16 -0.05,-0.28 -0.13,-0.35 -0.04,-0.05 -0.15,-0.11 -0.32,-0.18 -0.36,-0.16 -0.59,-0.27 -0.71,-0.33 -0.2,-0.11 -0.39,-0.25 -0.55,-0.42l0.24 3.11zm-0.25 -3.44l0.6 -0.52c0.06,0.02 0.12,0.03 0.19,0.02 0.21,-0.01 0.36,-0.07 0.44,-0.17 0.11,-0.15 0.18,-0.24 0.2,-0.27 0.05,-0.14 0.07,-0.4 0.04,-0.76 -0.05,-0.64 -0.33,-0.95 -0.83,-0.91 -0.35,0.03 -0.57,0.26 -0.66,0.7 -0.07,0.3 -0.08,0.74 -0.04,1.32l0.03 0.31c0,0.09 0.01,0.18 0.03,0.28zm-7.82 -1.04l-0.7 0.2 -0.11 -0.39 2.85 -0.81 0.11 0.39 -0.73 0.2 3.32 5.3 0.64 -0.18 0.11 0.38 -2.75 0.78 -0.11 -0.38 0.69 -0.2 -1.36 -2.18c0.05,0.76 -0.03,1.47 -0.24,2.12 -0.25,0.79 -0.62,1.25 -1.11,1.39 -0.33,0.09 -0.62,0.07 -0.85,-0.08 -0.23,-0.15 -0.4,-0.4 -0.49,-0.74 -0.14,-0.49 -0.16,-1.08 -0.06,-1.76 0.09,-0.54 0.25,-1.21 0.51,-2.01 0.07,-0.22 0.18,-0.55 0.32,-0.99 0.09,-0.31 0.1,-0.6 0.03,-0.85 -0.01,-0.04 -0.04,-0.11 -0.07,-0.19zm-0.07 4.93c0.11,0.4 0.34,0.56 0.67,0.46 0.17,-0.05 0.3,-0.16 0.37,-0.32 0.13,-0.31 0.25,-0.7 0.37,-1.16 0.16,-0.61 0.21,-1.08 0.17,-1.39l-0.89 -1.54c-0.11,0.29 -0.22,0.59 -0.33,0.88 -0.13,0.35 -0.22,0.65 -0.28,0.91 -0.06,0.28 -0.11,0.63 -0.13,1.06 -0.04,0.5 -0.02,0.86 0.05,1.1zm-3.52 2.99l0.56 -0.29c-0.52,-0.51 -1.06,-1.1 -1.62,-1.78 -0.22,-0.27 -0.58,-0.73 -1.09,-1.36l-0.5 -0.64c-0.05,0.2 -0.08,0.54 -0.09,1.01 -0.03,1.02 0.1,1.82 0.39,2.38 0.14,0.26 0.22,0.42 0.25,0.47 0.16,0.24 0.29,0.32 0.42,0.26 0.12,-0.06 0.26,0.02 0.41,0.25 0.03,0.04 0.12,0.21 0.27,0.5 0.08,0.15 0.01,0.27 -0.19,0.37 -0.05,0.03 -0.12,0.06 -0.23,0.09 -0.1,0.04 -0.18,0.07 -0.23,0.1l-0.11 0.05c-0.05,0.03 -0.11,0.07 -0.19,0.13 -0.09,0.06 -0.15,0.1 -0.19,0.12 -0.19,0.1 -0.35,0.05 -0.47,-0.14l-0.16 -0.31c-0.19,-0.38 -0.31,-0.83 -0.36,-1.35 -0.04,-0.29 -0.05,-0.76 -0.05,-1.41l0.02 -2.22c-0.02,-0.44 -0.06,-0.73 -0.13,-0.87 -0.05,-0.1 -0.11,-0.15 -0.16,-0.15 -0.06,0 -0.14,0.03 -0.24,0.08l-0.58 0.3 -0.19 -0.36 2.8 -1.43 0.18 0.36 -0.51 0.26c0.96,1.38 2.09,2.75 3.41,4.12 0.08,0.08 0.16,0.17 0.24,0.26l0.22 0.24 0.62 -0.32 0.18 0.36 -2.49 1.28 -0.19 -0.36zm-10.59 0.21l3.84 4.44 0.5 -0.43 0.26 0.3 -2.21 1.92 -0.26 -0.3 0.6 -0.52 -3.85 -4.44 -0.6 0.51 -0.26 -0.3 5.02 -4.35 0.26 0.31 -0.6 0.52 3.85 4.44 0.6 -0.52 0.26 0.3 -2.21 1.91 -0.26 -0.3 0.49 -0.43 -3.85 -4.44 -1.58 1.38zm69.15 21.22l3.79 2.27 2.17 -0.32 -0.13 -0.87 0.53 -0.07 0.56 3.86 -0.53 0.08 -0.15 -1.05 -7.75 1.14 0.15 1.04 -0.52 0.08 -0.57 -3.86 0.53 -0.08 0.13 0.87 4.74 -0.7 -3.81 -2.27 -1.34 0.2 0.12 0.85 -0.53 0.08 -0.56 -3.85 0.53 -0.08 0.15 1.05 7.75 -1.14 -0.15 -1.04 0.53 -0.08 0.56 3.85 -0.53 0.08 -0.12 -0.86 -5.55 0.82z"/>
   <path class="fil0" d="M41.61 65.84l-2.07 0 0 -1.22 8.08 0 0 1.22 -1.59 0 -4.42 0zm31.24 -1.99c0.18,0 0.39,0.13 0.65,0.39 0.18,0.21 0.36,0.41 0.53,0.61 0.56,0.59 1.45,1.43 2.68,2.52 1.29,1.16 2.21,2.22 2.77,3.19 0.67,1.18 1.01,2.52 1.01,4.04 0,1.34 -0.25,2.54 -0.74,3.61 -0.04,0.07 -0.07,0.14 -0.1,0.2 0.08,-0.52 0.12,-1.06 0.12,-1.62 0,-0.84 -0.1,-1.65 -0.29,-2.41 -0.19,-0.77 -0.48,-1.5 -0.86,-2.18 -0.32,-0.55 -0.72,-1.12 -1.22,-1.69 -0.48,-0.56 -1.06,-1.15 -1.74,-1.77l0 0c-0.62,-0.56 -1.13,-1.04 -1.55,-1.43 -0.41,-0.4 -0.75,-0.74 -1.01,-1.02l-0.49 -0.56 0 0.01 -0.06 -0.07c-0.2,-0.21 -0.39,-0.37 -0.57,-0.48l0 0.01c-0.29,-0.18 -0.58,-0.27 -0.87,-0.27 0.13,-0.12 0.28,-0.24 0.43,-0.38 0.41,-0.47 0.85,-0.7 1.31,-0.7zm-5.28 8.33c0.16,1.58 1.57,3.71 4.24,6.39 0.79,0.79 1.27,1.29 1.42,1.49 0.39,0.48 0.65,0.94 0.79,1.38 -0.08,0.1 -0.16,0.2 -0.25,0.29l-0.03 0.03c-0.23,0.27 -0.49,0.5 -0.78,0.71 -0.16,-0.29 -0.36,-0.59 -0.6,-0.9 -0.1,-0.13 -0.28,-0.34 -0.54,-0.61 -0.23,-0.24 -0.55,-0.57 -0.96,-0.98 -1.34,-1.37 -2.34,-2.57 -3,-3.62 -0.58,-0.93 -0.88,-1.69 -0.88,-2.28 0,-0.4 0.06,-0.77 0.18,-1.11 0.1,-0.27 0.23,-0.53 0.41,-0.79zm-9.67 -3.42l3.15 14.85 1.94 0 0 1.21 -3 0 -3.37 -16.06 1.28 0zm-5.69 6.6l-1.5 8.25 1.5 0 0 1.21 -2.07 0 1.88 -10.39 0.19 0.93zm-5.56 -6.6l1.97 9.33 -0.54 2.99 -2.57 -12.32 1.14 0zm-7.34 7.35c-0.13,0.72 -0.2,1.42 -0.2,2.1 0,0.56 0.09,1.57 0.27,3.03 0.11,0.81 0.16,1.39 0.16,1.73l0 0.55c0,0.18 0,0.36 0,0.55 0,0.34 -0.04,0.58 -0.12,0.72 -0.08,0.15 -0.25,0.25 -0.5,0.3 0,-0.18 -0.02,-0.41 -0.04,-0.7 -0.02,-0.24 -0.06,-0.59 -0.12,-1.05 -0.09,-0.71 -0.15,-1.32 -0.2,-1.83 -0.04,-0.48 -0.06,-0.85 -0.06,-1.12 0,-1.3 0.25,-2.67 0.76,-4.13l0.05 -0.15zm13.39 -10.27l0.01 -0.01 -1.2 0.01 0 -1.22 7.59 0 0 1.22 -1.1 0 -0.72 0 -4.58 0z"/>
   <path class="fil1" d="M44.02 85.8l-3.05 -14.64c-2.14,3.41 -3.21,6.48 -3.21,9.23 0,0.57 0.09,1.58 0.27,3.04 0.1,0.81 0.15,1.39 0.15,1.73l0 0.55c0,0.18 0,0.36 0,0.54 0,0.35 -0.04,0.59 -0.12,0.73 -0.12,0.23 -0.43,0.34 -0.94,0.34 -0.17,0 -0.42,-0.02 -0.76,-0.06 -0.33,-0.04 -0.56,-0.06 -0.7,-0.08 -0.15,0 -0.26,0 -0.32,0 -0.16,0 -0.39,0.02 -0.7,0.07 -0.31,0.04 -0.55,0.07 -0.7,0.07 -0.65,0 -0.97,-0.69 -0.97,-2.08 0,-2.51 0.73,-4.93 2.17,-7.25 0.36,-0.57 1.09,-1.63 2.21,-3.17 0.98,-1.36 1.68,-2.43 2.08,-3.2 0.57,-1.07 0.86,-2.04 0.86,-2.9l0 -0.33c-0.04,-0.16 -0.06,-0.28 -0.06,-0.37l-2.05 0 0 -1.21 7.99 0 0 1.21 -1.57 0 3.53 16.91 3.07 -16.91 -1.19 0 0 -1.21 7.51 0 0 1.21 -1.81 0 3.74 17.78 1.91 0 0 1.21 -7.45 0 0 -1.21 1.24 -0.01 -3.19 -15.21 -2.74 15.22 1.49 0 0 1.21 -8.15 0 0 -1.21 1.46 0zm27.08 -19.76c0.18,0 0.4,0.13 0.65,0.39 0.18,0.21 0.36,0.41 0.53,0.61 0.55,0.59 1.43,1.43 2.64,2.52 1.28,1.16 2.19,2.22 2.74,3.19 0.66,1.18 1,2.52 1,4.04 0,1.34 -0.25,2.54 -0.74,3.61 -0.43,0.94 -1.14,1.93 -2.14,2.98 -0.51,0.53 -1.49,1.53 -2.94,3.01 -0.92,0.93 -1.55,1.4 -1.88,1.4 -0.35,0 -1.3,-0.69 -2.85,-2.07 -1.67,-1.5 -2.77,-2.6 -3.29,-3.31 -1.1,-1.5 -1.65,-3.22 -1.65,-5.16 0,-2.05 0.67,-4.01 2,-5.89 0.82,-1.16 1.98,-2.36 3.47,-3.59 0.27,-0.22 0.66,-0.57 1.17,-1.03 0.41,-0.47 0.84,-0.7 1.29,-0.7zm-1.85 3.82c-0.96,0.14 -1.76,0.62 -2.41,1.44 -0.64,0.82 -0.97,1.75 -0.97,2.78 0,1.6 1.41,3.83 4.21,6.68 0.78,0.79 1.25,1.29 1.41,1.49 0.5,0.65 0.8,1.25 0.88,1.82 0.84,-0.35 1.57,-0.87 2.2,-1.58 0.71,-0.75 1.13,-1.55 1.27,-2.4 0.04,-0.24 0.05,-0.4 0.05,-0.49 0,-0.08 -0.01,-0.24 -0.05,-0.48 -0.16,-0.89 -0.76,-1.96 -1.8,-3.22 -0.49,-0.57 -1.12,-1.31 -1.91,-2.22l-1.7 -1.94c-0.63,-0.75 -1.02,-1.37 -1.18,-1.88z"/>
   <path class="fil2" d="M22.83 74.44c0,0 7.19,-6.53 12.51,-9.61 5.32,-3.08 8.28,-5.32 11.34,-6.12 3.07,-0.81 10.56,-3.9 16.21,-8.16 5.65,-4.25 7.02,-5.6 11.68,-7.99 4.67,-2.4 13.49,-3.99 13.9,-4.25 0.41,-0.26 -0.33,-0.35 -0.33,-0.35l-1.56 -0.17c-1.73,-0.13 -3.45,-0.25 -5.18,-0.37 0,0 -2.07,1.11 -3.82,1.38 -1.75,0.28 -4.07,0.97 -6.11,1.59 -2.04,0.62 -4.14,2.39 -6.55,3.08 -2.2,0.62 -5.26,2.35 -6.95,3.69 -0.4,0.32 -0.6,0.33 -1.2,0.27 -0.59,-0.06 -1.99,-0.13 -2.78,0.39 -1.44,0.94 -1.5,3.15 -5.65,3.73 -4.15,0.59 -3.74,0.3 -5.88,1.12 -2.14,0.82 -2.68,2.25 -2.77,2.93 -0.08,0.68 0.29,2.26 -2.13,4.13 -2.43,1.86 -2.7,1.99 -4.76,3.38 -2.07,1.4 -4.94,3.88 -6.44,5.75 -1.5,1.86 -3.53,5.58 -3.53,5.58zm12.42 -13.88c-1.18,-0.04 -1.42,-2.12 -1.26,-3.43 0.16,-1.3 1.32,-3.27 3.19,-3.04 1.88,0.23 2.09,1.57 1.97,2.59 -0.13,1.01 -2.56,3.92 -3.9,3.88z"/>
  </g>
 </g>
</svg>
