<?xml version="1.0" encoding="UTF-8"?>
<!DOCTYPE svg PUBLIC "-//W3C//DTD SVG 1.1//EN" "http://www.w3.org/Graphics/SVG/1.1/DTD/svg11.dtd">
<!-- Creator: CorelDRAW 2019 (64-Bit) -->
<svg xmlns="http://www.w3.org/2000/svg" xml:space="preserve" width="100px" height="56px" version="1.1" style="shape-rendering:geometricPrecision; text-rendering:geometricPrecision; image-rendering:optimizeQuality; fill-rule:evenodd; clip-rule:evenodd"
viewBox="0 0 47.57 26.78"
 xmlns:xlink="http://www.w3.org/1999/xlink"
 xmlns:xodm="http://www.corel.com/coreldraw/odm/2003">
 <defs>
  <style type="text/css">
   <![CDATA[
    .fil0 {fill:#3E44AB}
   ]]>
  </style>
 </defs>
 <g id="Слой_x0020_1">
  <metadata id="CorelCorpID_0Corel-Layer"/>
  <path class="fil0" d="M0 26.78c0,0 5.2,-4.72 9.05,-6.95 3.84,-2.23 5.99,-3.85 8.2,-4.43 2.22,-0.58 7.64,-2.82 11.73,-5.9 4.08,-3.08 5.07,-4.05 8.45,-5.78 3.37,-1.73 9.75,-2.89 10.05,-3.08 0.3,-0.19 -0.24,-0.25 -0.24,-0.25l-1.13 -0.12c-1.25,-0.09 -2.49,-0.18 -3.74,-0.27 0,0 -1.5,0.8 -2.77,1 -1.27,0.2 -2.94,0.7 -4.42,1.15 -1.47,0.45 -2.99,1.73 -4.74,2.22 -1.58,0.45 -3.8,1.71 -5.03,2.68 -0.28,0.23 -0.43,0.23 -0.86,0.19 -0.43,-0.05 -1.44,-0.09 -2.01,0.28 -1.04,0.68 -1.08,2.28 -4.09,2.7 -3,0.43 -2.7,0.22 -4.25,0.81 -1.55,0.59 -1.94,1.63 -2,2.12 -0.06,0.49 0.21,1.64 -1.55,2.99 -1.75,1.35 -1.95,1.43 -3.44,2.45 -1.5,1.01 -3.57,2.8 -4.66,4.15 -1.08,1.35 -2.55,4.04 -2.55,4.04zm8.99 -10.04c-0.86,-0.03 -1.03,-1.53 -0.92,-2.48 0.12,-0.94 0.95,-2.37 2.31,-2.2 1.36,0.17 1.51,1.14 1.42,1.87 -0.09,0.73 -1.85,2.84 -2.81,2.81z"/>
 </g>
</svg>
